<svg version="1.2" xmlns="http://www.w3.org/2000/svg" viewBox="0 0 381 386" width="381" height="386">
	<style>
		.s0 { fill: #000000 } 
		.s1 { fill: #00ffd0 } 
	</style>
	<path id="Shape 2" fill-rule="evenodd" class="s0" d="m191 383c-105.07 0-190-85.15-190-190.5 0-105.35 84.93-190.5 190-190.5 105.07 0 190 85.15 190 190.5 0 105.35-84.93 190.5-190 190.5z"/>
	<path id="Shape 1" fill-rule="evenodd" class="s1" d="m266.36 177.57l68.74 103.56c4.9 7.41 3.13 17.64-3.97 22.76-7.11 5.11-16.87 3.27-21.82-4.15l-65.21-98.19-31.72 34.11v54.72c0 9.06-7.01 16.37-15.69 16.37-8.68 0-15.69-7.31-15.69-16.37v-196.38c0-9.05 7.01-16.36 15.69-16.36 8.68 0 15.69 7.31 15.69 16.36v94.61l22.5-24.14 76.1-81.82c6.03-6.5 15.93-6.65 22.16-0.36 6.22 6.29 6.37 16.62 0.34 23.12zm-182.36-91.57h80v24h-80zm-33 48h113v23h-113zm-27 59h146v16h-146zm23 39h114v24h-114zm46 37h56v23h-56z"/>
</svg>